# xmcd
#
# Track frame offsets:
# 182
# 33032
# 57245
# 79177
# 104370
# 117170
# 148482
# 169470
#
# Disc length: 2666 seconds
#
# Revision: 0
# Processed by: cddbd v1.5.2PL0 Copyright (c) Steve Scherf et al.
# Submitted via: Audion 3.0.2 (http://www.panic.com/audion/)
#
DISCID=6d0a6808
DTITLE=Obst Obscure - Oo h Zoo z oo L a la
DYEAR=1900
DGENRE=
TTITLE0=obst obscure
TTITLE1=lullaby of a male surgeon
TTITLE2=das, was man sieht, aber nicht gleuben kann
TTITLE3=niemand tanzt 2
TTITLE4=nachts 2
TTITLE5=sherrystone hater
TTITLE6=movies 8/ich möchte
TTITLE7=obst obscure
EXTD=
EXTT0=
EXTT1=
EXTT2=
EXTT3=
EXTT4=
EXTT5=
EXTT6=
EXTT7=
PLAYORDER=
